<svg xmlns="http://www.w3.org/2000/svg" viewBox="0 0 191.25 236.73"><defs><style>.cls-1{fill:#f70f31;}</style></defs><title>Ресурс 1</title><g id="Слой_2" data-name="Слой 2"><g id="Layer_13" data-name="Layer 13"><polygon points="33.41 236.74 33.41 211.76 39.29 211.76 39.29 231.01 54.46 231.01 54.46 236.74 33.41 236.74"/><rect x="73.26" y="211.76" width="5.72" height="24.97"/><polygon points="97.77 236.74 97.77 211.71 116.68 211.71 116.68 217.65 103.5 217.65 103.5 224.05 110.93 224.05 110.93 229.83 103.5 229.83 103.5 236.74 97.77 236.74"/><polygon points="143.74 236.74 143.74 217.49 135.48 217.49 135.48 211.76 157.84 211.76 157.84 217.49 149.57 217.49 149.57 236.74 143.74 236.74"/><path class="cls-1" d="M95.62,0a95.62,95.62,0,1,0,95.62,95.62A95.73,95.73,0,0,0,95.62,0Zm0,183.93a88.3,88.3,0,1,1,88.3-88.3A88.41,88.41,0,0,1,95.62,183.93Z"/><polygon class="cls-1" points="87.02 51.72 91.25 59.04 77.88 82.2 69.42 82.2 87.02 51.72"/><polygon class="cls-1" points="95.62 51.47 95.48 51.72 91.25 44.4 95.62 36.83 99.99 44.4 95.77 51.72 95.62 51.47"/><polygon class="cls-1" points="117.59 89.52 91.96 89.52 91.96 82.2 113.36 82.2 99.99 59.04 104.22 51.72 149.94 130.91 114.26 130.91 114.26 123.59 137.26 123.59 117.59 89.52"/><polygon class="cls-1" points="73.65 89.52 53.98 123.59 77.32 123.59 77.32 130.91 41.3 130.91 65.2 89.52 73.65 89.52"/><polygon class="cls-1" points="91.96 96.84 99.28 96.84 99.28 123.59 106.94 123.59 106.94 130.91 84.64 130.91 84.64 123.59 91.96 123.59 91.96 96.84"/></g></g></svg>